<svg xmlns="http://www.w3.org/2000/svg" xmlns:xlink="http://www.w3.org/1999/xlink" contentStyleType="text/css" data-diagram-type="CLASS" height="1247px" preserveAspectRatio="none" style="width:1030px;height:1247px;background:#FFFFFF;" version="1.1" viewBox="0 0 1030 1247" width="1030px" zoomAndPan="magnify"><defs/><g><!--class PCA9955--><g id="elem_PCA9955"><rect codeLine="1" fill="#F1F1F1" height="418.2344" id="PCA9955" rx="2.5" ry="2.5" style="stroke:#181818;stroke-width:0.5;" width="795.6514" x="59.9" y="7"/><ellipse cx="421.7638" cy="23" fill="#ADD1B2" rx="11" ry="11" style="stroke:#181818;stroke-width:1;"/><path d="M424.7325,28.6406 Q424.1544,28.9375 423.5138,29.0781 Q422.8731,29.2344 422.17,29.2344 Q419.67,29.2344 418.3419,27.5938 Q417.0294,25.9375 417.0294,22.8125 Q417.0294,19.6875 418.3419,18.0313 Q419.67,16.375 422.17,16.375 Q422.8731,16.375 423.5138,16.5313 Q424.17,16.6875 424.7325,16.9844 L424.7325,19.7031 Q424.1075,19.125 423.5138,18.8594 Q422.92,18.5781 422.295,18.5781 Q420.9513,18.5781 420.2638,19.6563 Q419.5763,20.7188 419.5763,22.8125 Q419.5763,24.9063 420.2638,25.9844 Q420.9513,27.0469 422.295,27.0469 Q422.92,27.0469 423.5138,26.7813 Q424.1075,26.5 424.7325,25.9219 L424.7325,28.6406 Z " fill="#000000"/><text fill="#000000" font-family="sans-serif" font-size="14" lengthAdjust="spacing" textLength="63.4238" x="442.2638" y="27.8467">PCA9955</text><line style="stroke:#181818;stroke-width:0.5;" x1="60.9" x2="854.5514" y1="39" y2="39"/><ellipse cx="70.9" cy="52.6484" fill="#84BE84" rx="3" ry="3" style="stroke:#038048;stroke-width:1;"/><text fill="#000000" font-family="sans-serif" font-size="14" lengthAdjust="spacing" textLength="769.6514" x="79.9" y="55.9951">PCA9955(i2c: I2C, address: int, oe_pin: Optional[microcontroller.Pin], reset_pin: Optional[microcontroller.Pin])</text><line style="stroke:#181818;stroke-width:1;stroke-dasharray:1.0,2.0;" x1="60.9" x2="854.5514" y1="63.2969" y2="63.2969"/><ellipse cx="70.9" cy="76.9453" fill="#FFFFFF" fill-opacity="0.00000" rx="3" ry="3" style="stroke:#038048;stroke-width:1;"/><text fill="#000000" font-family="sans-serif" font-size="14" lengthAdjust="spacing" textLength="161.9297" x="79.9" y="80.292">channels: LedChannels</text><ellipse cx="70.9" cy="93.2422" fill="#FFFFFF" fill-opacity="0.00000" rx="3" ry="3" style="stroke:#038048;stroke-width:1;"/><text fill="#000000" font-family="sans-serif" font-size="14" lengthAdjust="spacing" textLength="107.6523" x="79.9" y="96.5889">groups: Groups</text><ellipse cx="70.9" cy="109.5391" fill="#FFFFFF" fill-opacity="0.00000" rx="3" ry="3" style="stroke:#038048;stroke-width:1;"/><text fill="#000000" font-family="sans-serif" font-size="14" lengthAdjust="spacing" textLength="227.1104" x="79.9" y="112.8857">subaddresses: I2CSubAddresses</text><ellipse cx="70.9" cy="146.1328" fill="#FFFFFF" fill-opacity="0.00000" rx="3" ry="3" style="stroke:#038048;stroke-width:1;"/><text fill="#000000" font-family="sans-serif" font-size="14" lengthAdjust="spacing" textLength="139.7061" x="79.9" y="149.4795">output_enable: bool</text><ellipse cx="70.9" cy="162.4297" fill="#FFFFFF" fill-opacity="0.00000" rx="3" ry="3" style="stroke:#038048;stroke-width:1;"/><text fill="#000000" font-family="sans-serif" font-size="14" lengthAdjust="spacing" textLength="101.2744" x="79.9" y="165.7764">brightness: int</text><ellipse cx="70.9" cy="178.7266" fill="#FFFFFF" fill-opacity="0.00000" rx="3" ry="3" style="stroke:#038048;stroke-width:1;"/><text fill="#000000" font-family="sans-serif" font-size="14" lengthAdjust="spacing" textLength="57.6475" x="79.9" y="182.0732">gain: int</text><line style="stroke:#181818;stroke-width:1;stroke-dasharray:1.0,2.0;" x1="60.9" x2="404.3097" y1="128.3359" y2="128.3359"/><text fill="#000000" font-family="sans-serif" font-size="14" lengthAdjust="spacing" textLength="106.832" x="404.3097" y="132.6826">core properties</text><line style="stroke:#181818;stroke-width:1;stroke-dasharray:1.0,2.0;" x1="511.1417" x2="854.5514" y1="128.3359" y2="128.3359"/><line style="stroke:#181818;stroke-width:1;stroke-dasharray:1.0,2.0;" x1="60.9" x2="854.5514" y1="189.375" y2="189.375"/><ellipse cx="70.9" cy="203.0234" fill="#FFFFFF" fill-opacity="0.00000" rx="3" ry="3" style="stroke:#038048;stroke-width:1;"/><text fill="#000000" font-family="sans-serif" font-size="14" lengthAdjust="spacing" textLength="205.0098" x="79.9" y="206.3701">exponential_graduation: bool</text><ellipse cx="70.9" cy="219.3203" fill="#FFFFFF" fill-opacity="0.00000" rx="3" ry="3" style="stroke:#038048;stroke-width:1;"/><text fill="#000000" font-family="sans-serif" font-size="14" lengthAdjust="spacing" textLength="142.3379" x="79.9" y="222.667">group_blinking: bool</text><ellipse cx="70.9" cy="235.6172" fill="#FFFFFF" fill-opacity="0.00000" rx="3" ry="3" style="stroke:#038048;stroke-width:1;"/><text fill="#000000" font-family="sans-serif" font-size="14" lengthAdjust="spacing" textLength="109.3613" x="79.9" y="238.9639">group_pwm: int</text><ellipse cx="70.9" cy="251.9141" fill="#FFFFFF" fill-opacity="0.00000" rx="3" ry="3" style="stroke:#038048;stroke-width:1;"/><text fill="#000000" font-family="sans-serif" font-size="14" lengthAdjust="spacing" textLength="145.9131" x="79.9" y="255.2607">group_frequency: int</text><line style="stroke:#181818;stroke-width:1;stroke-dasharray:1.0,2.0;" x1="60.9" x2="854.5514" y1="262.5625" y2="262.5625"/><ellipse cx="70.9" cy="276.2109" fill="#FFFFFF" fill-opacity="0.00000" rx="3" ry="3" style="stroke:#038048;stroke-width:1;"/><text fill="#000000" font-family="sans-serif" font-size="14" lengthAdjust="spacing" textLength="195.1934" x="79.9" y="279.5576">over_temp: bool (read only)</text><ellipse cx="70.9" cy="292.5078" fill="#FFFFFF" fill-opacity="0.00000" rx="3" ry="3" style="stroke:#038048;stroke-width:1;"/><text fill="#000000" font-family="sans-serif" font-size="14" lengthAdjust="spacing" textLength="202.6582" x="79.9" y="295.8545">errors_exist: bool (read only)</text><ellipse cx="70.9" cy="308.8047" fill="#FFFFFF" fill-opacity="0.00000" rx="3" ry="3" style="stroke:#038048;stroke-width:1;"/><text fill="#000000" font-family="sans-serif" font-size="14" lengthAdjust="spacing" textLength="159.9541" x="79.9" y="312.1514">low_power_mode: bool</text><ellipse cx="70.9" cy="325.1016" fill="#FFFFFF" fill-opacity="0.00000" rx="3" ry="3" style="stroke:#038048;stroke-width:1;"/><text fill="#000000" font-family="sans-serif" font-size="14" lengthAdjust="spacing" textLength="182.3076" x="79.9" y="328.4482">auto_increment_flag: bool</text><ellipse cx="70.9" cy="341.3984" fill="#FFFFFF" fill-opacity="0.00000" rx="3" ry="3" style="stroke:#038048;stroke-width:1;"/><text fill="#000000" font-family="sans-serif" font-size="14" lengthAdjust="spacing" textLength="184.0713" x="79.9" y="344.7451">auto_increment_mode: int</text><ellipse cx="70.9" cy="357.6953" fill="#FFFFFF" fill-opacity="0.00000" rx="3" ry="3" style="stroke:#038048;stroke-width:1;"/><text fill="#000000" font-family="sans-serif" font-size="14" lengthAdjust="spacing" textLength="165.6689" x="79.9" y="361.042">output_delay_offset: int</text><line style="stroke:#181818;stroke-width:1;stroke-dasharray:1.0,2.0;" x1="60.9" x2="854.5514" y1="368.3438" y2="368.3438"/><ellipse cx="70.9" cy="381.9922" fill="#84BE84" rx="3" ry="3" style="stroke:#038048;stroke-width:1;"/><text fill="#000000" font-family="sans-serif" font-size="14" lengthAdjust="spacing" textLength="132.9932" x="79.9" y="385.3389">clear_errors(): void</text><ellipse cx="70.9" cy="398.2891" fill="#84BE84" rx="3" ry="3" style="stroke:#038048;stroke-width:1;"/><text fill="#000000" font-family="sans-serif" font-size="14" lengthAdjust="spacing" textLength="89.3594" x="79.9" y="401.6357">deinit(): void</text><ellipse cx="70.9" cy="414.5859" fill="#84BE84" rx="3" ry="3" style="stroke:#038048;stroke-width:1;"/><text fill="#000000" font-family="sans-serif" font-size="14" lengthAdjust="spacing" textLength="85.4834" x="79.9" y="417.9326">reset(): void</text></g><!--class LedChannels--><g id="elem_LedChannels"><rect codeLine="29" fill="#F1F1F1" height="72.5938" id="LedChannels" rx="2.5" ry="2.5" style="stroke:#181818;stroke-width:0.5;" width="277.4531" x="7" y="485.24"/><ellipse cx="96.4414" cy="501.24" fill="#ADD1B2" rx="11" ry="11" style="stroke:#181818;stroke-width:1;"/><path d="M99.4102,506.8806 Q98.832,507.1775 98.1914,507.3181 Q97.5508,507.4744 96.8477,507.4744 Q94.3477,507.4744 93.0195,505.8338 Q91.707,504.1775 91.707,501.0525 Q91.707,497.9275 93.0195,496.2713 Q94.3477,494.615 96.8477,494.615 Q97.5508,494.615 98.1914,494.7713 Q98.8477,494.9275 99.4102,495.2244 L99.4102,497.9431 Q98.7852,497.365 98.1914,497.0994 Q97.5977,496.8181 96.9727,496.8181 Q95.6289,496.8181 94.9414,497.8963 Q94.2539,498.9588 94.2539,501.0525 Q94.2539,503.1463 94.9414,504.2244 Q95.6289,505.2869 96.9727,505.2869 Q97.5977,505.2869 98.1914,505.0213 Q98.7852,504.74 99.4102,504.1619 L99.4102,506.8806 Z " fill="#000000"/><text fill="#000000" font-family="sans-serif" font-size="14" lengthAdjust="spacing" textLength="90.0703" x="116.9414" y="506.0867">LedChannels</text><line style="stroke:#181818;stroke-width:0.5;" x1="8" x2="283.4531" y1="517.24" y2="517.24"/><ellipse cx="18" cy="530.8884" fill="#84BE84" rx="3" ry="3" style="stroke:#038048;stroke-width:1;"/><text fill="#000000" font-family="sans-serif" font-size="14" lengthAdjust="spacing" textLength="87.7188" x="27" y="534.2351">__len__(): int</text><ellipse cx="18" cy="547.1853" fill="#84BE84" rx="3" ry="3" style="stroke:#038048;stroke-width:1;"/><text fill="#000000" font-family="sans-serif" font-size="14" lengthAdjust="spacing" textLength="251.4531" x="27" y="550.532">__getitem__(index: int): LedChannel</text></g><!--class Groups--><g id="elem_Groups"><rect codeLine="34" fill="#F1F1F1" height="72.5938" id="Groups" rx="2.5" ry="2.5" style="stroke:#181818;stroke-width:0.5;" width="237.6064" x="338.92" y="485.24"/><ellipse cx="428.3614" cy="501.24" fill="#ADD1B2" rx="11" ry="11" style="stroke:#181818;stroke-width:1;"/><path d="M431.3302,506.8806 Q430.752,507.1775 430.1114,507.3181 Q429.4708,507.4744 428.7677,507.4744 Q426.2677,507.4744 424.9395,505.8338 Q423.627,504.1775 423.627,501.0525 Q423.627,497.9275 424.9395,496.2713 Q426.2677,494.615 428.7677,494.615 Q429.4708,494.615 430.1114,494.7713 Q430.7677,494.9275 431.3302,495.2244 L431.3302,497.9431 Q430.7052,497.365 430.1114,497.0994 Q429.5177,496.8181 428.8927,496.8181 Q427.5489,496.8181 426.8614,497.8963 Q426.1739,498.9588 426.1739,501.0525 Q426.1739,503.1463 426.8614,504.2244 Q427.5489,505.2869 428.8927,505.2869 Q429.5177,505.2869 430.1114,505.0213 Q430.7052,504.74 431.3302,504.1619 L431.3302,506.8806 Z " fill="#000000"/><text fill="#000000" font-family="sans-serif" font-size="14" lengthAdjust="spacing" textLength="50.2236" x="448.8614" y="506.0867">Groups</text><line style="stroke:#181818;stroke-width:0.5;" x1="339.92" x2="575.5264" y1="517.24" y2="517.24"/><ellipse cx="349.92" cy="530.8884" fill="#84BE84" rx="3" ry="3" style="stroke:#038048;stroke-width:1;"/><text fill="#000000" font-family="sans-serif" font-size="14" lengthAdjust="spacing" textLength="87.7188" x="358.92" y="534.2351">__len__(): int</text><ellipse cx="349.92" cy="547.1853" fill="#84BE84" rx="3" ry="3" style="stroke:#038048;stroke-width:1;"/><text fill="#000000" font-family="sans-serif" font-size="14" lengthAdjust="spacing" textLength="211.6064" x="358.92" y="550.532">__getitem__(index: int): Group</text></g><!--class I2CSubAddresses--><g id="elem_I2CSubAddresses"><rect codeLine="40" fill="#F1F1F1" height="72.5938" id="I2CSubAddresses" rx="2.5" ry="2.5" style="stroke:#181818;stroke-width:0.5;" width="300.4424" x="611.51" y="485.24"/><ellipse cx="696.6448" cy="501.24" fill="#ADD1B2" rx="11" ry="11" style="stroke:#181818;stroke-width:1;"/><path d="M699.6135,506.8806 Q699.0354,507.1775 698.3948,507.3181 Q697.7541,507.4744 697.051,507.4744 Q694.551,507.4744 693.2229,505.8338 Q691.9104,504.1775 691.9104,501.0525 Q691.9104,497.9275 693.2229,496.2713 Q694.551,494.615 697.051,494.615 Q697.7541,494.615 698.3948,494.7713 Q699.051,494.9275 699.6135,495.2244 L699.6135,497.9431 Q698.9885,497.365 698.3948,497.0994 Q697.801,496.8181 697.176,496.8181 Q695.8323,496.8181 695.1448,497.8963 Q694.4573,498.9588 694.4573,501.0525 Q694.4573,503.1463 695.1448,504.2244 Q695.8323,505.2869 697.176,505.2869 Q697.801,505.2869 698.3948,505.0213 Q698.9885,504.74 699.6135,504.1619 L699.6135,506.8806 Z " fill="#000000"/><text fill="#000000" font-family="sans-serif" font-size="14" lengthAdjust="spacing" textLength="121.6729" x="717.1448" y="506.0867">I2CSubAddresses</text><line style="stroke:#181818;stroke-width:0.5;" x1="612.51" x2="910.9524" y1="517.24" y2="517.24"/><ellipse cx="622.51" cy="530.8884" fill="#84BE84" rx="3" ry="3" style="stroke:#038048;stroke-width:1;"/><text fill="#000000" font-family="sans-serif" font-size="14" lengthAdjust="spacing" textLength="87.7188" x="631.51" y="534.2351">__len__(): int</text><ellipse cx="622.51" cy="547.1853" fill="#84BE84" rx="3" ry="3" style="stroke:#038048;stroke-width:1;"/><text fill="#000000" font-family="sans-serif" font-size="14" lengthAdjust="spacing" textLength="274.4424" x="631.51" y="550.532">__getitem__(index: int): I2CSubAddress</text></g><!--class dummy--><!--class LedChannel--><g id="elem_LedChannel"><rect codeLine="50" fill="#F1F1F1" height="137.7813" id="LedChannel" rx="2.5" ry="2.5" style="stroke:#181818;stroke-width:0.5;" width="236.752" x="338.35" y="937.69"/><ellipse cx="411.0878" cy="953.69" fill="#ADD1B2" rx="11" ry="11" style="stroke:#181818;stroke-width:1;"/><path d="M414.0565,959.3306 Q413.4784,959.6275 412.8378,959.7681 Q412.1972,959.9244 411.494,959.9244 Q408.994,959.9244 407.6659,958.2838 Q406.3534,956.6275 406.3534,953.5025 Q406.3534,950.3775 407.6659,948.7213 Q408.994,947.065 411.494,947.065 Q412.1972,947.065 412.8378,947.2213 Q413.494,947.3775 414.0565,947.6744 L414.0565,950.3931 Q413.4315,949.815 412.8378,949.5494 Q412.244,949.2681 411.619,949.2681 Q410.2753,949.2681 409.5878,950.3463 Q408.9003,951.4088 408.9003,953.5025 Q408.9003,955.5963 409.5878,956.6744 Q410.2753,957.7369 411.619,957.7369 Q412.244,957.7369 412.8378,957.4713 Q413.4315,957.19 414.0565,956.6119 L414.0565,959.3306 Z " fill="#000000"/><text fill="#000000" font-family="sans-serif" font-size="14" lengthAdjust="spacing" textLength="82.7764" x="431.5878" y="958.5367">LedChannel</text><line style="stroke:#181818;stroke-width:0.5;" x1="339.35" x2="574.102" y1="969.69" y2="969.69"/><ellipse cx="349.35" cy="983.3384" fill="#FFFFFF" fill-opacity="0.00000" rx="3" ry="3" style="stroke:#038048;stroke-width:1;"/><text fill="#000000" font-family="sans-serif" font-size="14" lengthAdjust="spacing" textLength="101.2744" x="358.35" y="986.6851">brightness: int</text><ellipse cx="349.35" cy="999.6353" fill="#FFFFFF" fill-opacity="0.00000" rx="3" ry="3" style="stroke:#038048;stroke-width:1;"/><text fill="#000000" font-family="sans-serif" font-size="14" lengthAdjust="spacing" textLength="57.6475" x="358.35" y="1002.982">gain: int</text><ellipse cx="349.35" cy="1015.9322" fill="#FFFFFF" fill-opacity="0.00000" rx="3" ry="3" style="stroke:#038048;stroke-width:1;"/><text fill="#000000" font-family="sans-serif" font-size="14" lengthAdjust="spacing" textLength="116.0605" x="358.35" y="1019.2789">output_state: int</text><ellipse cx="349.35" cy="1032.2291" fill="#FFFFFF" fill-opacity="0.00000" rx="3" ry="3" style="stroke:#038048;stroke-width:1;"/><text fill="#000000" font-family="sans-serif" font-size="14" lengthAdjust="spacing" textLength="90.2549" x="358.35" y="1035.5757">led_error: int</text><ellipse cx="349.35" cy="1048.5259" fill="#FFFFFF" fill-opacity="0.00000" rx="3" ry="3" style="stroke:#038048;stroke-width:1;"/><text fill="#000000" font-family="sans-serif" font-size="14" lengthAdjust="spacing" textLength="81.4023" x="358.35" y="1051.8726">groupId: int</text><ellipse cx="349.35" cy="1064.8228" fill="#FFFFFF" fill-opacity="0.00000" rx="3" ry="3" style="stroke:#038048;stroke-width:1;"/><text fill="#000000" font-family="sans-serif" font-size="14" lengthAdjust="spacing" textLength="210.752" x="358.35" y="1068.1695">graduation_mode_select: bool</text></g><g id="elem_GMN9"><path d="M174.28,994.02 L174.28,1019.1528 A0,0 0 0 0 174.28,1019.1528 L303.1711,1019.1528 A0,0 0 0 0 303.1711,1019.1528 L303.1711,1012.02 L337.87,1006.58 L303.1711,1004.02 L303.1711,1004.02 L293.1711,994.02 L174.28,994.02 A0,0 0 0 0 174.28,994.02 " fill="#FEFFDD" style="stroke:#181818;stroke-width:0.5;"/><path d="M293.1711,994.02 L293.1711,1004.02 L303.1711,1004.02 L293.1711,994.02 " fill="#FEFFDD" style="stroke:#181818;stroke-width:0.5;"/><text fill="#000000" font-family="sans-serif" font-size="13" lengthAdjust="spacing" textLength="107.8911" x="180.28" y="1011.0869">Basic led control</text></g><!--class Group--><g id="elem_Group"><rect codeLine="60" fill="#F1F1F1" height="259.8594" id="Group" rx="2.5" ry="2.5" style="stroke:#181818;stroke-width:0.5;" width="191.7031" x="381.88" y="617.83"/><ellipse cx="452.0167" cy="633.83" fill="#ADD1B2" rx="11" ry="11" style="stroke:#181818;stroke-width:1;"/><path d="M454.9855,639.4706 Q454.4073,639.7675 453.7667,639.9081 Q453.1261,640.0644 452.423,640.0644 Q449.923,640.0644 448.5948,638.4238 Q447.2823,636.7675 447.2823,633.6425 Q447.2823,630.5175 448.5948,628.8613 Q449.923,627.205 452.423,627.205 Q453.1261,627.205 453.7667,627.3613 Q454.423,627.5175 454.9855,627.8144 L454.9855,630.5331 Q454.3605,629.955 453.7667,629.6894 Q453.173,629.4081 452.548,629.4081 Q451.2042,629.4081 450.5167,630.4863 Q449.8292,631.5488 449.8292,633.6425 Q449.8292,635.7363 450.5167,636.8144 Q451.2042,637.8769 452.548,637.8769 Q453.173,637.8769 453.7667,637.6113 Q454.3605,637.33 454.9855,636.7519 L454.9855,639.4706 Z " fill="#000000"/><text fill="#000000" font-family="sans-serif" font-size="14" lengthAdjust="spacing" textLength="42.9297" x="472.5167" y="638.6767">Group</text><line style="stroke:#181818;stroke-width:0.5;" x1="382.88" x2="572.5831" y1="649.83" y2="649.83"/><ellipse cx="392.88" cy="663.4784" fill="#FFFFFF" fill-opacity="0.00000" rx="3" ry="3" style="stroke:#038048;stroke-width:1;"/><text fill="#000000" font-family="sans-serif" font-size="14" lengthAdjust="spacing" textLength="57.6475" x="401.88" y="666.8251">gain: int</text><ellipse cx="392.88" cy="679.7753" fill="#FFFFFF" fill-opacity="0.00000" rx="3" ry="3" style="stroke:#038048;stroke-width:1;"/><text fill="#000000" font-family="sans-serif" font-size="14" lengthAdjust="spacing" textLength="162.1553" x="401.88" y="683.122">graduation_mode: bool</text><ellipse cx="392.88" cy="696.0722" fill="#FFFFFF" fill-opacity="0.00000" rx="3" ry="3" style="stroke:#038048;stroke-width:1;"/><text fill="#000000" font-family="sans-serif" font-size="14" lengthAdjust="spacing" textLength="100.6934" x="401.88" y="699.4189">ramp_up: bool</text><ellipse cx="392.88" cy="712.3691" fill="#FFFFFF" fill-opacity="0.00000" rx="3" ry="3" style="stroke:#038048;stroke-width:1;"/><text fill="#000000" font-family="sans-serif" font-size="14" lengthAdjust="spacing" textLength="120.709" x="401.88" y="715.7157">ramp_down: bool</text><ellipse cx="392.88" cy="728.6659" fill="#FFFFFF" fill-opacity="0.00000" rx="3" ry="3" style="stroke:#038048;stroke-width:1;"/><text fill="#000000" font-family="sans-serif" font-size="14" lengthAdjust="spacing" textLength="99.7158" x="401.88" y="732.0126">ramp_rate: int</text><ellipse cx="392.88" cy="744.9628" fill="#FFFFFF" fill-opacity="0.00000" rx="3" ry="3" style="stroke:#038048;stroke-width:1;"/><text fill="#000000" font-family="sans-serif" font-size="14" lengthAdjust="spacing" textLength="102.2314" x="401.88" y="748.3095">cycle_time: int</text><ellipse cx="392.88" cy="761.2597" fill="#FFFFFF" fill-opacity="0.00000" rx="3" ry="3" style="stroke:#038048;stroke-width:1;"/><text fill="#000000" font-family="sans-serif" font-size="14" lengthAdjust="spacing" textLength="135.9736" x="401.88" y="764.6064">factor_per_step: int</text><ellipse cx="392.88" cy="777.5566" fill="#FFFFFF" fill-opacity="0.00000" rx="3" ry="3" style="stroke:#038048;stroke-width:1;"/><text fill="#000000" font-family="sans-serif" font-size="14" lengthAdjust="spacing" textLength="93.7275" x="401.88" y="780.9032">hold_on: bool</text><ellipse cx="392.88" cy="793.8534" fill="#FFFFFF" fill-opacity="0.00000" rx="3" ry="3" style="stroke:#038048;stroke-width:1;"/><text fill="#000000" font-family="sans-serif" font-size="14" lengthAdjust="spacing" textLength="120.7021" x="401.88" y="797.2001">hold_on_time: int</text><ellipse cx="392.88" cy="810.1503" fill="#FFFFFF" fill-opacity="0.00000" rx="3" ry="3" style="stroke:#038048;stroke-width:1;"/><text fill="#000000" font-family="sans-serif" font-size="14" lengthAdjust="spacing" textLength="94.7119" x="401.88" y="813.497">hold_off: bool</text><ellipse cx="392.88" cy="826.4472" fill="#FFFFFF" fill-opacity="0.00000" rx="3" ry="3" style="stroke:#038048;stroke-width:1;"/><text fill="#000000" font-family="sans-serif" font-size="14" lengthAdjust="spacing" textLength="121.6865" x="401.88" y="829.7939">hold_off_time: int</text><line style="stroke:#181818;stroke-width:0.5;" x1="382.88" x2="572.5831" y1="837.0956" y2="837.0956"/><ellipse cx="392.88" cy="850.7441" fill="#84BE84" rx="3" ry="3" style="stroke:#038048;stroke-width:1;"/><text fill="#000000" font-family="sans-serif" font-size="14" lengthAdjust="spacing" textLength="165.7031" x="401.88" y="854.0907">graduation_start(): void</text><ellipse cx="392.88" cy="867.0409" fill="#84BE84" rx="3" ry="3" style="stroke:#038048;stroke-width:1;"/><text fill="#000000" font-family="sans-serif" font-size="14" lengthAdjust="spacing" textLength="163.3311" x="401.88" y="870.3876">graduation_stop(): void</text></g><g id="elem_GMN13"><path d="M198.66,727.63 L198.66,767.8956 A0,0 0 0 0 198.66,767.8956 L346.7845,767.8956 A0,0 0 0 0 346.7845,767.8956 L346.7845,751.76 L381.62,747.76 L346.7845,743.76 L346.7845,737.63 L336.7845,727.63 L198.66,727.63 A0,0 0 0 0 198.66,727.63 " fill="#FEFFDD" style="stroke:#181818;stroke-width:0.5;"/><path d="M336.7845,727.63 L336.7845,737.63 L346.7845,737.63 L336.7845,727.63 " fill="#FEFFDD" style="stroke:#181818;stroke-width:0.5;"/><text fill="#000000" font-family="sans-serif" font-size="13" lengthAdjust="spacing" textLength="127.1245" x="204.66" y="744.6969">Complex automatic</text><text fill="#000000" font-family="sans-serif" font-size="13" lengthAdjust="spacing" textLength="88.9624" x="204.66" y="759.8297">group actions</text></g><!--class I2CSubAddress--><g id="elem_I2CSubAddress"><rect codeLine="78" fill="#F1F1F1" height="72.5938" id="I2CSubAddress" rx="2.5" ry="2.5" style="stroke:#181818;stroke-width:0.5;" width="137.7656" x="692.84" y="711.46"/><ellipse cx="707.84" cy="727.46" fill="#ADD1B2" rx="11" ry="11" style="stroke:#181818;stroke-width:1;"/><path d="M710.8088,733.1006 Q710.2306,733.3975 709.59,733.5381 Q708.9494,733.6944 708.2463,733.6944 Q705.7463,733.6944 704.4181,732.0538 Q703.1056,730.3975 703.1056,727.2725 Q703.1056,724.1475 704.4181,722.4913 Q705.7463,720.835 708.2463,720.835 Q708.9494,720.835 709.59,720.9913 Q710.2463,721.1475 710.8088,721.4444 L710.8088,724.1631 Q710.1838,723.585 709.59,723.3194 Q708.9963,723.0381 708.3713,723.0381 Q707.0275,723.0381 706.34,724.1163 Q705.6525,725.1788 705.6525,727.2725 Q705.6525,729.3663 706.34,730.4444 Q707.0275,731.5069 708.3713,731.5069 Q708.9963,731.5069 709.59,731.2413 Q710.1838,730.96 710.8088,730.3819 L710.8088,733.1006 Z " fill="#000000"/><text fill="#000000" font-family="sans-serif" font-size="14" lengthAdjust="spacing" textLength="105.7656" x="721.84" y="732.3067">I2CSubAddress</text><line style="stroke:#181818;stroke-width:0.5;" x1="693.84" x2="829.6056" y1="743.46" y2="743.46"/><ellipse cx="703.84" cy="757.1084" fill="#FFFFFF" fill-opacity="0.00000" rx="3" ry="3" style="stroke:#038048;stroke-width:1;"/><text fill="#000000" font-family="sans-serif" font-size="14" lengthAdjust="spacing" textLength="82.7285" x="712.84" y="760.4551">address: int</text><ellipse cx="703.84" cy="773.4053" fill="#FFFFFF" fill-opacity="0.00000" rx="3" ry="3" style="stroke:#038048;stroke-width:1;"/><text fill="#000000" font-family="sans-serif" font-size="14" lengthAdjust="spacing" textLength="86.5293" x="712.84" y="776.752">enable: bool</text></g><g id="elem_GMN17"><path d="M865.86,727.63 L865.86,743.76 L831.07,747.76 L865.86,751.76 L865.86,767.8956 A0,0 0 0 0 865.86,767.8956 L1023.5885,767.8956 A0,0 0 0 0 1023.5885,767.8956 L1023.5885,737.63 L1013.5885,727.63 L865.86,727.63 A0,0 0 0 0 865.86,727.63 " fill="#FEFFDD" style="stroke:#181818;stroke-width:0.5;"/><path d="M1013.5885,727.63 L1013.5885,737.63 L1023.5885,737.63 L1013.5885,727.63 " fill="#FEFFDD" style="stroke:#181818;stroke-width:0.5;"/><text fill="#000000" font-family="sans-serif" font-size="13" lengthAdjust="spacing" textLength="130.6157" x="871.86" y="744.6969">Support for multiple</text><text fill="#000000" font-family="sans-serif" font-size="13" lengthAdjust="spacing" textLength="136.7285" x="871.86" y="759.8297">devices on same bus</text></g><!--class ErrorCodes--><g id="elem_ErrorCodes"><rect codeLine="84" fill="#F1F1F1" height="88.8906" id="ErrorCodes" rx="2.5" ry="2.5" style="stroke:#181818;stroke-width:0.5;" width="209.9756" x="222.74" y="1143.62"/><ellipse cx="284.5711" cy="1159.62" fill="#EB937F" rx="11" ry="11" style="stroke:#181818;stroke-width:1;"/><path d="M288.6804,1165.62 L280.9617,1165.62 L280.9617,1153.2294 L288.6804,1153.2294 L288.6804,1155.3856 L283.4148,1155.3856 L283.4148,1158.0575 L288.1804,1158.0575 L288.1804,1160.2138 L283.4148,1160.2138 L283.4148,1163.4638 L288.6804,1163.4638 L288.6804,1165.62 Z " fill="#000000"/><text fill="#000000" font-family="sans-serif" font-size="14" lengthAdjust="spacing" textLength="77.8135" x="305.0711" y="1164.4667">ErrorCodes</text><line style="stroke:#181818;stroke-width:0.5;" x1="223.74" x2="431.7156" y1="1175.62" y2="1175.62"/><text fill="#000000" font-family="sans-serif" font-size="14" lengthAdjust="spacing" textLength="107.9121" x="228.74" y="1192.6151">NONE: No error</text><text fill="#000000" font-family="sans-serif" font-size="14" lengthAdjust="spacing" textLength="197.9756" x="228.74" y="1208.912">SHORT_CIRCUI: Short circuit</text><text fill="#000000" font-family="sans-serif" font-size="14" lengthAdjust="spacing" textLength="196.417" x="228.74" y="1225.2089">OPEN_CIRCUIT: Open circuit</text></g><!--class OutputState--><g id="elem_OutputState"><rect codeLine="90" fill="#F1F1F1" height="105.1875" id="OutputState" rx="2.5" ry="2.5" style="stroke:#181818;stroke-width:0.5;" width="233.2588" x="468.1" y="1135.47"/><ellipse cx="537.6352" cy="1151.47" fill="#EB937F" rx="11" ry="11" style="stroke:#181818;stroke-width:1;"/><path d="M541.7445,1157.47 L534.0258,1157.47 L534.0258,1145.0794 L541.7445,1145.0794 L541.7445,1147.2356 L536.4789,1147.2356 L536.4789,1149.9075 L541.2445,1149.9075 L541.2445,1152.0638 L536.4789,1152.0638 L536.4789,1155.3138 L541.7445,1155.3138 L541.7445,1157.47 Z " fill="#000000"/><text fill="#000000" font-family="sans-serif" font-size="14" lengthAdjust="spacing" textLength="85.6885" x="558.1352" y="1156.3167">OutputState</text><line style="stroke:#181818;stroke-width:0.5;" x1="469.1" x2="700.3588" y1="1167.47" y2="1167.47"/><text fill="#000000" font-family="sans-serif" font-size="14" lengthAdjust="spacing" textLength="116.6416" x="474.1" y="1184.4651">OFF: Channel off</text><text fill="#000000" font-family="sans-serif" font-size="14" lengthAdjust="spacing" textLength="176.9551" x="474.1" y="1200.762">FULL_ON: Channel full on</text><text fill="#000000" font-family="sans-serif" font-size="14" lengthAdjust="spacing" textLength="139.8223" x="474.1" y="1217.0589">PWM: Channel PWM</text><text fill="#000000" font-family="sans-serif" font-size="14" lengthAdjust="spacing" textLength="221.2588" x="474.1" y="1233.3557">PWM_GRP: Channel PWM group</text></g><!--class SubAddresses--><g id="elem_SubAddresses"><rect codeLine="97" fill="#F1F1F1" height="105.1875" id="SubAddresses" rx="2.5" ry="2.5" style="stroke:#181818;stroke-width:0.5;" width="130.8613" x="696.3" y="953.99"/><ellipse cx="711.3" cy="969.99" fill="#EB937F" rx="11" ry="11" style="stroke:#181818;stroke-width:1;"/><path d="M715.4094,975.99 L707.6906,975.99 L707.6906,963.5994 L715.4094,963.5994 L715.4094,965.7556 L710.1438,965.7556 L710.1438,968.4275 L714.9094,968.4275 L714.9094,970.5838 L710.1438,970.5838 L710.1438,973.8338 L715.4094,973.8338 L715.4094,975.99 Z " fill="#000000"/><text fill="#000000" font-family="sans-serif" font-size="14" lengthAdjust="spacing" textLength="98.8613" x="725.3" y="974.8367">SubAddresses</text><line style="stroke:#181818;stroke-width:0.5;" x1="697.3" x2="826.1613" y1="985.99" y2="985.99"/><text fill="#000000" font-family="sans-serif" font-size="14" lengthAdjust="spacing" textLength="67.7305" x="702.3" y="1002.9851">SUBADR1</text><text fill="#000000" font-family="sans-serif" font-size="14" lengthAdjust="spacing" textLength="67.7305" x="702.3" y="1019.282">SUBADR2</text><text fill="#000000" font-family="sans-serif" font-size="14" lengthAdjust="spacing" textLength="67.7305" x="702.3" y="1035.5789">SUBADR3</text><text fill="#000000" font-family="sans-serif" font-size="14" lengthAdjust="spacing" textLength="90.2139" x="702.3" y="1051.8757">ALLCALLADR</text></g><!--link LedChannels to dummy--><!--link PCA9955 to LedChannels--><g id="link_PCA9955_LedChannels"><path codeLine="106" d="M234.9878,433.7368 C211.5978,456.4868 203.1425,464.7081 186.3825,480.9981 " fill="#FFFFFF" fill-opacity="0.00000" id="PCA9955-LedChannels" style="stroke:#181818;stroke-width:1;"/><polygon fill="#FFFFFF" fill-opacity="0.00000" points="243.59,425.37,236.5,426.686,234.9878,433.7368,242.0779,432.4208,243.59,425.37" style="stroke:#181818;stroke-width:1;"/><polygon fill="#181818" points="182.08,485.18,191.3217,481.7755,185.6654,481.6951,185.7459,476.0388,182.08,485.18" style="stroke:#181818;stroke-width:1;"/><text fill="#000000" font-family="sans-serif" font-size="13" lengthAdjust="spacing" textLength="8.271" x="227.7556" y="445.2288">1</text><text fill="#000000" font-family="sans-serif" font-size="13" lengthAdjust="spacing" textLength="8.271" x="175.7136" y="474.173">1</text></g><!--link LedChannels to LedChannel--><g id="link_LedChannels_LedChannel"><path codeLine="107" d="M136.2679,569.958 C124.1079,638.978 109.8,780.84 180.73,877.69 C220.72,932.31 259.31,909.23 320.73,937.69 C326.35,940.3 326.6702,940.4259 332.4602,943.1759 " fill="#FFFFFF" fill-opacity="0.00000" id="LedChannels-LedChannel" style="stroke:#181818;stroke-width:1;"/><polygon fill="#181818" points="138.35,558.14,133.3696,563.355,136.2679,569.958,141.2483,564.743,138.35,558.14" style="stroke:#181818;stroke-width:1;"/><polygon fill="#181818" points="337.88,945.75,331.4665,938.2756,333.3635,943.6049,328.0343,945.5019,337.88,945.75" style="stroke:#181818;stroke-width:1;"/><text fill="#000000" font-family="sans-serif" font-size="13" lengthAdjust="spacing" textLength="8.271" x="128.4179" y="577.7985">1</text><text fill="#000000" font-family="sans-serif" font-size="13" lengthAdjust="spacing" textLength="16.542" x="309.6474" y="938.4437">16</text></g><!--link PCA9955 to Groups--><g id="link_PCA9955_Groups"><path codeLine="108" d="M457.73,437.37 C457.73,460.12 457.73,462.89 457.73,479.18 " fill="#FFFFFF" fill-opacity="0.00000" id="PCA9955-Groups" style="stroke:#181818;stroke-width:1;"/><polygon fill="#FFFFFF" fill-opacity="0.00000" points="457.73,425.37,453.73,431.37,457.73,437.37,461.73,431.37,457.73,425.37" style="stroke:#181818;stroke-width:1;"/><polygon fill="#181818" points="457.73,485.18,461.73,476.18,457.73,480.18,453.73,476.18,457.73,485.18" style="stroke:#181818;stroke-width:1;"/><text fill="#000000" font-family="sans-serif" font-size="13" lengthAdjust="spacing" textLength="8.271" x="449.5913" y="445.2288">1</text><text fill="#000000" font-family="sans-serif" font-size="13" lengthAdjust="spacing" textLength="8.271" x="444.6622" y="474.173">1</text></g><!--link Groups to Group--><g id="link_Groups_Group"><path codeLine="109" d="M461.9606,570.013 C463.4406,586.693 463.7276,589.7537 465.6776,611.6437 " fill="#FFFFFF" fill-opacity="0.00000" id="Groups-Group" style="stroke:#181818;stroke-width:1;"/><polygon fill="#181818" points="460.9,558.06,457.4459,564.39,461.9606,570.013,465.4146,563.683,460.9,558.06" style="stroke:#181818;stroke-width:1;"/><polygon fill="#181818" points="466.21,617.62,469.3956,608.3006,465.7663,612.6397,461.4272,609.0104,466.21,617.62" style="stroke:#181818;stroke-width:1;"/><text fill="#000000" font-family="sans-serif" font-size="13" lengthAdjust="spacing" textLength="8.271" x="452.7775" y="577.9803">1</text><text fill="#000000" font-family="sans-serif" font-size="13" lengthAdjust="spacing" textLength="8.271" x="453.2087" y="606.7334">4</text></g><!--link PCA9955 to I2CSubAddresses--><g id="link_PCA9955_I2CSubAddresses"><path codeLine="110" d="M674.8646,433.846 C697.6646,456.596 705.7335,464.6513 722.0535,480.9413 " fill="#FFFFFF" fill-opacity="0.00000" id="PCA9955-I2CSubAddresses" style="stroke:#181818;stroke-width:1;"/><polygon fill="#FFFFFF" fill-opacity="0.00000" points="666.37,425.37,667.792,432.4395,674.8646,433.846,673.4426,426.7765,666.37,425.37" style="stroke:#181818;stroke-width:1;"/><polygon fill="#181818" points="726.3,485.18,722.756,475.9909,722.7612,481.6477,717.1044,481.6529,726.3,485.18" style="stroke:#181818;stroke-width:1;"/><text fill="#000000" font-family="sans-serif" font-size="13" lengthAdjust="spacing" textLength="8.271" x="665.7293" y="445.2288">1</text><text fill="#000000" font-family="sans-serif" font-size="13" lengthAdjust="spacing" textLength="8.271" x="706.6983" y="474.173">1</text></g><!--link I2CSubAddresses to I2CSubAddress--><g id="link_I2CSubAddresses_I2CSubAddress"><path codeLine="111" d="M761.73,570.06 C761.73,611.93 761.73,663.08 761.73,705.03 " fill="#FFFFFF" fill-opacity="0.00000" id="I2CSubAddresses-I2CSubAddress" style="stroke:#181818;stroke-width:1;"/><polygon fill="#181818" points="761.73,558.06,757.73,564.06,761.73,570.06,765.73,564.06,761.73,558.06" style="stroke:#181818;stroke-width:1;"/><polygon fill="#181818" points="761.73,711.03,765.73,702.03,761.73,706.03,757.73,702.03,761.73,711.03" style="stroke:#181818;stroke-width:1;"/><text fill="#000000" font-family="sans-serif" font-size="13" lengthAdjust="spacing" textLength="8.271" x="753.0414" y="577.9803">1</text><text fill="#000000" font-family="sans-serif" font-size="13" lengthAdjust="spacing" textLength="8.271" x="748.7346" y="700.5068">4</text></g><!--link Group to LedChannel--><g id="link_Group_LedChannel"><path codeLine="112" d="M467.17,877.92 C465.49,898.41 464.3088,912.8899 462.8088,931.2399 " fill="#FFFFFF" fill-opacity="0.00000" id="Group-to-LedChannel" style="stroke:#181818;stroke-width:1;"/><polygon fill="#181818" points="462.32,937.22,467.04,928.5758,462.7274,932.2366,459.0665,927.924,462.32,937.22" style="stroke:#181818;stroke-width:1;"/><text fill="#000000" font-family="sans-serif" font-size="13" lengthAdjust="spacing" textLength="8.271" x="458.336" y="897.9492">1</text><text fill="#000000" font-family="sans-serif" font-size="13" lengthAdjust="spacing" textLength="8.271" x="454.4902" y="926.7275">4</text></g><!--link LedChannel to ErrorCodes--><g id="link_LedChannel_ErrorCodes"><path codeLine="114" d="M407.59,1075.95 C391.36,1098.54 373.74,1123.04 359.2,1143.28 " fill="#FFFFFF" fill-opacity="0.00000" id="LedChannel-ErrorCodes" style="stroke:#181818;stroke-width:1;"/></g><!--link LedChannel to OutputState--><g id="link_LedChannel_OutputState"><path codeLine="115" d="M505.48,1075.95 C519.47,1095.56 534.49,1116.63 547.65,1135.08 " fill="#FFFFFF" fill-opacity="0.00000" id="LedChannel-OutputState" style="stroke:#181818;stroke-width:1;"/></g><!--link I2CSubAddress to SubAddresses--><g id="link_I2CSubAddress_SubAddresses"><path codeLine="116" d="M761.73,784.47 C761.73,828.44 761.73,903.45 761.73,953.76 " fill="#FFFFFF" fill-opacity="0.00000" id="I2CSubAddress-SubAddresses" style="stroke:#181818;stroke-width:1;"/></g><!--SRC=[hLRlRzCy4FxUlyBQ5pRO9ct0Az4FIADiCAcqrSh41q2MQrzQ2__2SRPLQF_xUx6JDiaI0HAJgYL-plVSdU-vc2kMvsGnkNZpvlLhycj4yEz5zNeep_cON9zFZWaJmaEUZuaquPXOe4wQCPcx8ArXwgkMt5jkJV1MAV2d2sc-7nFS0U4FB8yYw-bf8l-LIL3YaV0DCmOKSav1JAgNjidQsyAXmOVulutbnQeA6lAOnB9ONTGB5I7XrWDntZhmGKBU3S4MmHM1Wc4h1MEoibQr3LPUhZV1r9NfHCVApElbhczuSDQ02P8fklPC5AoiK1z9p9Akb3G_f5aFMxXxtHT5n38FFmimV3iSaBq3JmDebnZ8eGScY3LgUzI9t7lhSmeFCW-_irNsdZfxZvwr5RqbP4MmL1hkGMCrQARO-W_CahSdoLO79a2nBRLPXltNax26iB5bXobWdgPq3e_6vCvAqJ4H88qC0s3ixntsE1hnAAP6kzQ2scsXL86XjDoq3tuFhY58F08qa4R0GpGwQWfWpv9w_XyHH6UbxyfvHox_YANbDR8zowpdGF2qyEH6ZSATVDr88S1yFpbvIqIXzNQ42r0zFYdqBi2_rsMtT_B0GbzhAH2fLOOqTYrwaLhPiMLf3WfufHgiWB41iuSCLzwnNFAIXLJJiNNGtGG7SkZGzGd9C-reuGOXOU_D8EZxQyEtA2KQfEu3CyQ3zHH7BDOMN8_5nYf1-sTV1GtvJd2M3M_DiYTxwpvj50iFtG-fl6LcNKFlZTERMEqKFCGnfT6OVpEnAGWcZplpVcLrJxNvbUtCtEOdg6AEFJucoy8vwmD1AH5Tg20na6yekpl9KRdMa9nf8Ai2Oq0tXIQNPHTFi3rgVZARpox7P6RJQ4zhou_pcyzqSdqpkRr6aar9mQNdXKoXaVdYSbRXdyiFF9WT_bXJpQEcbgMaAghvrHLMgr8jdavQlRgTJkbyjaUoGY5i4hhuyccFuCjkbNwuMRIGfCGzVtE8fG2Mj-yktj-SDPxF6yylu_F5T3h17xx78JMgRqS7PmV4bWFfu8mSj6ubpP5VMZrFLl-rp0RyrBUNQg3ljxz2C0tcWOtTIqrtQhTTjQTlcYgbHMc05gr86maXtkYO3j0utpPx2RPYI-CRRnTXIpJe5VZyVm00]--></g></svg>