<svg xmlns="http://www.w3.org/2000/svg" xmlns:xlink="http://www.w3.org/1999/xlink" contentStyleType="text/css" data-diagram-type="CLASS" height="1292px" preserveAspectRatio="none" style="width:1018px;height:1292px;background:#FFFFFF;" version="1.1" viewBox="0 0 1018 1292" width="1018px" zoomAndPan="magnify"><defs/><g><!--class PCA9955--><g id="elem_PCA9955"><rect codeLine="6" fill="#F1F1F1" height="463.125" id="PCA9955" rx="2.5" ry="2.5" style="stroke:#181818;stroke-width:0.5;" width="795.6514" x="59.9" y="7"/><ellipse cx="421.7638" cy="23" fill="#ADD1B2" rx="11" ry="11" style="stroke:#181818;stroke-width:1;"/><path d="M424.7325,28.6406 Q424.1544,28.9375 423.5138,29.0781 Q422.8731,29.2344 422.17,29.2344 Q419.67,29.2344 418.3419,27.5938 Q417.0294,25.9375 417.0294,22.8125 Q417.0294,19.6875 418.3419,18.0313 Q419.67,16.375 422.17,16.375 Q422.8731,16.375 423.5138,16.5313 Q424.17,16.6875 424.7325,16.9844 L424.7325,19.7031 Q424.1075,19.125 423.5138,18.8594 Q422.92,18.5781 422.295,18.5781 Q420.9513,18.5781 420.2638,19.6563 Q419.5763,20.7188 419.5763,22.8125 Q419.5763,24.9063 420.2638,25.9844 Q420.9513,27.0469 422.295,27.0469 Q422.92,27.0469 423.5138,26.7813 Q424.1075,26.5 424.7325,25.9219 L424.7325,28.6406 Z " fill="#000000"/><text fill="#000000" font-family="sans-serif" font-size="14" lengthAdjust="spacing" textLength="63.4238" x="442.2638" y="27.8467">PCA9955</text><line style="stroke:#181818;stroke-width:0.5;" x1="60.9" x2="854.5514" y1="39" y2="39"/><ellipse cx="70.9" cy="52.6484" fill="#84BE84" rx="3" ry="3" style="stroke:#038048;stroke-width:1;"/><text fill="#000000" font-family="sans-serif" font-size="14" lengthAdjust="spacing" textLength="769.6514" x="79.9" y="55.9951">PCA9955(i2c: I2C, address: int, oe_pin: Optional[microcontroller.Pin], reset_pin: Optional[microcontroller.Pin])</text><line style="stroke:#181818;stroke-width:1;stroke-dasharray:1.0,2.0;" x1="60.9" x2="854.5514" y1="63.2969" y2="63.2969"/><ellipse cx="70.9" cy="76.9453" fill="#FFFFFF" fill-opacity="0.00000" rx="3" ry="3" style="stroke:#038048;stroke-width:1;"/><text fill="#000000" font-family="sans-serif" font-size="14" lengthAdjust="spacing" textLength="161.9297" x="79.9" y="80.292">channels: LedChannels</text><ellipse cx="70.9" cy="93.2422" fill="#FFFFFF" fill-opacity="0.00000" rx="3" ry="3" style="stroke:#038048;stroke-width:1;"/><text fill="#000000" font-family="sans-serif" font-size="14" lengthAdjust="spacing" textLength="107.6523" x="79.9" y="96.5889">groups: Groups</text><ellipse cx="70.9" cy="109.5391" fill="#FFFFFF" fill-opacity="0.00000" rx="3" ry="3" style="stroke:#038048;stroke-width:1;"/><text fill="#000000" font-family="sans-serif" font-size="14" lengthAdjust="spacing" textLength="204.2988" x="79.9" y="112.8857">subaddresses: SubAddresses</text><ellipse cx="70.9" cy="146.1328" fill="#FFFFFF" fill-opacity="0.00000" rx="3" ry="3" style="stroke:#038048;stroke-width:1;"/><text fill="#000000" font-family="sans-serif" font-size="14" lengthAdjust="spacing" textLength="139.7061" x="79.9" y="149.4795">output_enable: bool</text><ellipse cx="70.9" cy="162.4297" fill="#FFFFFF" fill-opacity="0.00000" rx="3" ry="3" style="stroke:#038048;stroke-width:1;"/><text fill="#000000" font-family="sans-serif" font-size="14" lengthAdjust="spacing" textLength="101.2744" x="79.9" y="165.7764">brightness: int</text><ellipse cx="70.9" cy="178.7266" fill="#FFFFFF" fill-opacity="0.00000" rx="3" ry="3" style="stroke:#038048;stroke-width:1;"/><text fill="#000000" font-family="sans-serif" font-size="14" lengthAdjust="spacing" textLength="57.6475" x="79.9" y="182.0732">gain: int</text><line style="stroke:#181818;stroke-width:1;stroke-dasharray:1.0,2.0;" x1="60.9" x2="404.3097" y1="128.3359" y2="128.3359"/><text fill="#000000" font-family="sans-serif" font-size="14" lengthAdjust="spacing" textLength="106.832" x="404.3097" y="132.6826">core properties</text><line style="stroke:#181818;stroke-width:1;stroke-dasharray:1.0,2.0;" x1="511.1417" x2="854.5514" y1="128.3359" y2="128.3359"/><ellipse cx="70.9" cy="215.3203" fill="#FFFFFF" fill-opacity="0.00000" rx="3" ry="3" style="stroke:#038048;stroke-width:1;"/><text fill="#000000" font-family="sans-serif" font-size="14" lengthAdjust="spacing" textLength="205.0098" x="79.9" y="218.667">exponential_graduation: bool</text><ellipse cx="70.9" cy="231.6172" fill="#FFFFFF" fill-opacity="0.00000" rx="3" ry="3" style="stroke:#038048;stroke-width:1;"/><text fill="#000000" font-family="sans-serif" font-size="14" lengthAdjust="spacing" textLength="94.3701" x="79.9" y="234.9639">blinking: bool</text><ellipse cx="70.9" cy="247.9141" fill="#FFFFFF" fill-opacity="0.00000" rx="3" ry="3" style="stroke:#038048;stroke-width:1;"/><text fill="#000000" font-family="sans-serif" font-size="14" lengthAdjust="spacing" textLength="61.3936" x="79.9" y="251.2607">pwm: int</text><ellipse cx="70.9" cy="264.2109" fill="#FFFFFF" fill-opacity="0.00000" rx="3" ry="3" style="stroke:#038048;stroke-width:1;"/><text fill="#000000" font-family="sans-serif" font-size="14" lengthAdjust="spacing" textLength="97.9453" x="79.9" y="267.5576">frequency: int</text><ellipse cx="70.9" cy="280.5078" fill="#FFFFFF" fill-opacity="0.00000" rx="3" ry="3" style="stroke:#038048;stroke-width:1;"/><text fill="#000000" font-family="sans-serif" font-size="14" lengthAdjust="spacing" textLength="118.8496" x="79.9" y="283.8545">output_delay: int</text><line style="stroke:#181818;stroke-width:1;stroke-dasharray:1.0,2.0;" x1="60.9" x2="406.087" y1="197.5234" y2="197.5234"/><text fill="#000000" font-family="sans-serif" font-size="14" lengthAdjust="spacing" textLength="103.2773" x="406.087" y="201.8701">global controls</text><line style="stroke:#181818;stroke-width:1;stroke-dasharray:1.0,2.0;" x1="509.3644" x2="854.5514" y1="197.5234" y2="197.5234"/><ellipse cx="70.9" cy="317.1016" fill="#FFFFFF" fill-opacity="0.00000" rx="3" ry="3" style="stroke:#038048;stroke-width:1;"/><text fill="#000000" font-family="sans-serif" font-size="14" lengthAdjust="spacing" textLength="159.9541" x="79.9" y="320.4482">low_power_mode: bool</text><ellipse cx="70.9" cy="333.3984" fill="#FFFFFF" fill-opacity="0.00000" rx="3" ry="3" style="stroke:#038048;stroke-width:1;"/><text fill="#000000" font-family="sans-serif" font-size="14" lengthAdjust="spacing" textLength="182.3076" x="79.9" y="336.7451">auto_increment_flag: bool</text><ellipse cx="70.9" cy="349.6953" fill="#FFFFFF" fill-opacity="0.00000" rx="3" ry="3" style="stroke:#038048;stroke-width:1;"/><text fill="#000000" font-family="sans-serif" font-size="14" lengthAdjust="spacing" textLength="184.0713" x="79.9" y="353.042">auto_increment_mode: int</text><line style="stroke:#181818;stroke-width:1;stroke-dasharray:1.0,2.0;" x1="60.9" x2="400.2594" y1="299.3047" y2="299.3047"/><text fill="#000000" font-family="sans-serif" font-size="14" lengthAdjust="spacing" textLength="114.9326" x="400.2594" y="303.6514">low level control</text><line style="stroke:#181818;stroke-width:1;stroke-dasharray:1.0,2.0;" x1="515.192" x2="854.5514" y1="299.3047" y2="299.3047"/><ellipse cx="70.9" cy="386.2891" fill="#FFFFFF" fill-opacity="0.00000" rx="3" ry="3" style="stroke:#038048;stroke-width:1;"/><text fill="#000000" font-family="sans-serif" font-size="14" lengthAdjust="spacing" textLength="195.1934" x="79.9" y="389.6357">over_temp: bool (read only)</text><ellipse cx="70.9" cy="402.5859" fill="#FFFFFF" fill-opacity="0.00000" rx="3" ry="3" style="stroke:#038048;stroke-width:1;"/><text fill="#000000" font-family="sans-serif" font-size="14" lengthAdjust="spacing" textLength="202.6582" x="79.9" y="405.9326">errors_exist: bool (read only)</text><line style="stroke:#181818;stroke-width:1;stroke-dasharray:1.0,2.0;" x1="60.9" x2="391.3863" y1="368.4922" y2="368.4922"/><text fill="#000000" font-family="sans-serif" font-size="14" lengthAdjust="spacing" textLength="132.6787" x="391.3863" y="372.8389">error management</text><line style="stroke:#181818;stroke-width:1;stroke-dasharray:1.0,2.0;" x1="524.065" x2="854.5514" y1="368.4922" y2="368.4922"/><line style="stroke:#181818;stroke-width:1;stroke-dasharray:1.0,2.0;" x1="60.9" x2="854.5514" y1="413.2344" y2="413.2344"/><ellipse cx="70.9" cy="426.8828" fill="#84BE84" rx="3" ry="3" style="stroke:#038048;stroke-width:1;"/><text fill="#000000" font-family="sans-serif" font-size="14" lengthAdjust="spacing" textLength="132.9932" x="79.9" y="430.2295">clear_errors(): void</text><ellipse cx="70.9" cy="443.1797" fill="#84BE84" rx="3" ry="3" style="stroke:#038048;stroke-width:1;"/><text fill="#000000" font-family="sans-serif" font-size="14" lengthAdjust="spacing" textLength="89.3594" x="79.9" y="446.5264">deinit(): void</text><ellipse cx="70.9" cy="459.4766" fill="#84BE84" rx="3" ry="3" style="stroke:#038048;stroke-width:1;"/><text fill="#000000" font-family="sans-serif" font-size="14" lengthAdjust="spacing" textLength="85.4834" x="79.9" y="462.8232">reset(): void</text></g><!--class LedChannels--><g id="elem_LedChannels"><rect codeLine="35" fill="#F1F1F1" height="72.5938" id="LedChannels" rx="2.5" ry="2.5" style="stroke:#181818;stroke-width:0.5;" width="277.4531" x="7" y="530.13"/><ellipse cx="96.4414" cy="546.13" fill="#ADD1B2" rx="11" ry="11" style="stroke:#181818;stroke-width:1;"/><path d="M99.4102,551.7706 Q98.832,552.0675 98.1914,552.2081 Q97.5508,552.3644 96.8477,552.3644 Q94.3477,552.3644 93.0195,550.7238 Q91.707,549.0675 91.707,545.9425 Q91.707,542.8175 93.0195,541.1613 Q94.3477,539.505 96.8477,539.505 Q97.5508,539.505 98.1914,539.6613 Q98.8477,539.8175 99.4102,540.1144 L99.4102,542.8331 Q98.7852,542.255 98.1914,541.9894 Q97.5977,541.7081 96.9727,541.7081 Q95.6289,541.7081 94.9414,542.7863 Q94.2539,543.8488 94.2539,545.9425 Q94.2539,548.0363 94.9414,549.1144 Q95.6289,550.1769 96.9727,550.1769 Q97.5977,550.1769 98.1914,549.9113 Q98.7852,549.63 99.4102,549.0519 L99.4102,551.7706 Z " fill="#000000"/><text fill="#000000" font-family="sans-serif" font-size="14" lengthAdjust="spacing" textLength="90.0703" x="116.9414" y="550.9767">LedChannels</text><line style="stroke:#181818;stroke-width:0.5;" x1="8" x2="283.4531" y1="562.13" y2="562.13"/><ellipse cx="18" cy="575.7784" fill="#84BE84" rx="3" ry="3" style="stroke:#038048;stroke-width:1;"/><text fill="#000000" font-family="sans-serif" font-size="14" lengthAdjust="spacing" textLength="87.7188" x="27" y="579.1251">__len__(): int</text><ellipse cx="18" cy="592.0753" fill="#84BE84" rx="3" ry="3" style="stroke:#038048;stroke-width:1;"/><text fill="#000000" font-family="sans-serif" font-size="14" lengthAdjust="spacing" textLength="251.4531" x="27" y="595.422">__getitem__(index: int): LedChannel</text></g><!--class Groups--><g id="elem_Groups"><rect codeLine="40" fill="#F1F1F1" height="72.5938" id="Groups" rx="2.5" ry="2.5" style="stroke:#181818;stroke-width:0.5;" width="237.6064" x="338.92" y="530.13"/><ellipse cx="428.3614" cy="546.13" fill="#ADD1B2" rx="11" ry="11" style="stroke:#181818;stroke-width:1;"/><path d="M431.3302,551.7706 Q430.752,552.0675 430.1114,552.2081 Q429.4708,552.3644 428.7677,552.3644 Q426.2677,552.3644 424.9395,550.7238 Q423.627,549.0675 423.627,545.9425 Q423.627,542.8175 424.9395,541.1613 Q426.2677,539.505 428.7677,539.505 Q429.4708,539.505 430.1114,539.6613 Q430.7677,539.8175 431.3302,540.1144 L431.3302,542.8331 Q430.7052,542.255 430.1114,541.9894 Q429.5177,541.7081 428.8927,541.7081 Q427.5489,541.7081 426.8614,542.7863 Q426.1739,543.8488 426.1739,545.9425 Q426.1739,548.0363 426.8614,549.1144 Q427.5489,550.1769 428.8927,550.1769 Q429.5177,550.1769 430.1114,549.9113 Q430.7052,549.63 431.3302,549.0519 L431.3302,551.7706 Z " fill="#000000"/><text fill="#000000" font-family="sans-serif" font-size="14" lengthAdjust="spacing" textLength="50.2236" x="448.8614" y="550.9767">Groups</text><line style="stroke:#181818;stroke-width:0.5;" x1="339.92" x2="575.5264" y1="562.13" y2="562.13"/><ellipse cx="349.92" cy="575.7784" fill="#84BE84" rx="3" ry="3" style="stroke:#038048;stroke-width:1;"/><text fill="#000000" font-family="sans-serif" font-size="14" lengthAdjust="spacing" textLength="87.7188" x="358.92" y="579.1251">__len__(): int</text><ellipse cx="349.92" cy="592.0753" fill="#84BE84" rx="3" ry="3" style="stroke:#038048;stroke-width:1;"/><text fill="#000000" font-family="sans-serif" font-size="14" lengthAdjust="spacing" textLength="211.6064" x="358.92" y="595.422">__getitem__(index: int): Group</text></g><!--class SubAddresses--><g id="elem_SubAddresses"><rect codeLine="46" fill="#F1F1F1" height="72.5938" id="SubAddresses" rx="2.5" ry="2.5" style="stroke:#181818;stroke-width:0.5;" width="300.4424" x="611.51" y="530.13"/><ellipse cx="708.0505" cy="546.13" fill="#ADD1B2" rx="11" ry="11" style="stroke:#181818;stroke-width:1;"/><path d="M711.0193,551.7706 Q710.4412,552.0675 709.8005,552.2081 Q709.1599,552.3644 708.4568,552.3644 Q705.9568,552.3644 704.6287,550.7238 Q703.3162,549.0675 703.3162,545.9425 Q703.3162,542.8175 704.6287,541.1613 Q705.9568,539.505 708.4568,539.505 Q709.1599,539.505 709.8005,539.6613 Q710.4568,539.8175 711.0193,540.1144 L711.0193,542.8331 Q710.3943,542.255 709.8005,541.9894 Q709.2068,541.7081 708.5818,541.7081 Q707.238,541.7081 706.5505,542.7863 Q705.863,543.8488 705.863,545.9425 Q705.863,548.0363 706.5505,549.1144 Q707.238,550.1769 708.5818,550.1769 Q709.2068,550.1769 709.8005,549.9113 Q710.3943,549.63 711.0193,549.0519 L711.0193,551.7706 Z " fill="#000000"/><text fill="#000000" font-family="sans-serif" font-size="14" lengthAdjust="spacing" textLength="98.8613" x="728.5505" y="550.9767">SubAddresses</text><line style="stroke:#181818;stroke-width:0.5;" x1="612.51" x2="910.9524" y1="562.13" y2="562.13"/><ellipse cx="622.51" cy="575.7784" fill="#84BE84" rx="3" ry="3" style="stroke:#038048;stroke-width:1;"/><text fill="#000000" font-family="sans-serif" font-size="14" lengthAdjust="spacing" textLength="87.7188" x="631.51" y="579.1251">__len__(): int</text><ellipse cx="622.51" cy="592.0753" fill="#84BE84" rx="3" ry="3" style="stroke:#038048;stroke-width:1;"/><text fill="#000000" font-family="sans-serif" font-size="14" lengthAdjust="spacing" textLength="274.4424" x="631.51" y="595.422">__getitem__(index: int): I2CSubAddress</text></g><!--class dummy--><!--class LedChannel--><g id="elem_LedChannel"><rect codeLine="56" fill="#F1F1F1" height="137.7813" id="LedChannel" rx="2.5" ry="2.5" style="stroke:#181818;stroke-width:0.5;" width="188.1553" x="350.65" y="982.58"/><ellipse cx="399.0895" cy="998.58" fill="#ADD1B2" rx="11" ry="11" style="stroke:#181818;stroke-width:1;"/><path d="M402.0582,1004.2206 Q401.4801,1004.5175 400.8395,1004.6581 Q400.1988,1004.8144 399.4957,1004.8144 Q396.9957,1004.8144 395.6676,1003.1737 Q394.3551,1001.5175 394.3551,998.3925 Q394.3551,995.2675 395.6676,993.6112 Q396.9957,991.955 399.4957,991.955 Q400.1988,991.955 400.8395,992.1112 Q401.4957,992.2675 402.0582,992.5644 L402.0582,995.2831 Q401.4332,994.705 400.8395,994.4394 Q400.2457,994.1581 399.6207,994.1581 Q398.277,994.1581 397.5895,995.2362 Q396.902,996.2987 396.902,998.3925 Q396.902,1000.4862 397.5895,1001.5644 Q398.277,1002.6269 399.6207,1002.6269 Q400.2457,1002.6269 400.8395,1002.3612 Q401.4332,1002.08 402.0582,1001.5019 L402.0582,1004.2206 Z " fill="#000000"/><text fill="#000000" font-family="sans-serif" font-size="14" lengthAdjust="spacing" textLength="82.7764" x="419.5895" y="1003.4267">LedChannel</text><line style="stroke:#181818;stroke-width:0.5;" x1="351.65" x2="537.8053" y1="1014.58" y2="1014.58"/><ellipse cx="361.65" cy="1028.2284" fill="#FFFFFF" fill-opacity="0.00000" rx="3" ry="3" style="stroke:#038048;stroke-width:1;"/><text fill="#000000" font-family="sans-serif" font-size="14" lengthAdjust="spacing" textLength="101.2744" x="370.65" y="1031.5751">brightness: int</text><ellipse cx="361.65" cy="1044.5253" fill="#FFFFFF" fill-opacity="0.00000" rx="3" ry="3" style="stroke:#038048;stroke-width:1;"/><text fill="#000000" font-family="sans-serif" font-size="14" lengthAdjust="spacing" textLength="57.6475" x="370.65" y="1047.872">gain: int</text><ellipse cx="361.65" cy="1060.8222" fill="#FFFFFF" fill-opacity="0.00000" rx="3" ry="3" style="stroke:#038048;stroke-width:1;"/><text fill="#000000" font-family="sans-serif" font-size="14" lengthAdjust="spacing" textLength="62.8838" x="370.65" y="1064.1689">state: int</text><ellipse cx="361.65" cy="1077.1191" fill="#FFFFFF" fill-opacity="0.00000" rx="3" ry="3" style="stroke:#038048;stroke-width:1;"/><text fill="#000000" font-family="sans-serif" font-size="14" lengthAdjust="spacing" textLength="61.8652" x="370.65" y="1080.4657">error: int</text><ellipse cx="361.65" cy="1093.4159" fill="#FFFFFF" fill-opacity="0.00000" rx="3" ry="3" style="stroke:#038048;stroke-width:1;"/><text fill="#000000" font-family="sans-serif" font-size="14" lengthAdjust="spacing" textLength="81.4023" x="370.65" y="1096.7626">groupId: int</text><ellipse cx="361.65" cy="1109.7128" fill="#FFFFFF" fill-opacity="0.00000" rx="3" ry="3" style="stroke:#038048;stroke-width:1;"/><text fill="#000000" font-family="sans-serif" font-size="14" lengthAdjust="spacing" textLength="162.1553" x="370.65" y="1113.0595">graduation_mode: bool</text></g><g id="elem_GMN9"><path d="M186.28,1038.91 L186.28,1064.0428 A0,0 0 0 0 186.28,1064.0428 L315.1711,1064.0428 A0,0 0 0 0 315.1711,1064.0428 L315.1711,1056.91 L350.34,1051.47 L315.1711,1048.91 L315.1711,1048.91 L305.1711,1038.91 L186.28,1038.91 A0,0 0 0 0 186.28,1038.91 " fill="#FEFFDD" style="stroke:#181818;stroke-width:0.5;"/><path d="M305.1711,1038.91 L305.1711,1048.91 L315.1711,1048.91 L305.1711,1038.91 " fill="#FEFFDD" style="stroke:#181818;stroke-width:0.5;"/><text fill="#000000" font-family="sans-serif" font-size="13" lengthAdjust="spacing" textLength="107.8911" x="192.28" y="1055.9769">Basic led control</text></g><!--class Group--><g id="elem_Group"><rect codeLine="66" fill="#F1F1F1" height="259.8594" id="Group" rx="2.5" ry="2.5" style="stroke:#181818;stroke-width:0.5;" width="191.7031" x="381.88" y="662.72"/><ellipse cx="452.0167" cy="678.72" fill="#ADD1B2" rx="11" ry="11" style="stroke:#181818;stroke-width:1;"/><path d="M454.9855,684.3606 Q454.4073,684.6575 453.7667,684.7981 Q453.1261,684.9544 452.423,684.9544 Q449.923,684.9544 448.5948,683.3137 Q447.2823,681.6575 447.2823,678.5325 Q447.2823,675.4075 448.5948,673.7512 Q449.923,672.095 452.423,672.095 Q453.1261,672.095 453.7667,672.2512 Q454.423,672.4075 454.9855,672.7044 L454.9855,675.4231 Q454.3605,674.845 453.7667,674.5794 Q453.173,674.2981 452.548,674.2981 Q451.2042,674.2981 450.5167,675.3762 Q449.8292,676.4387 449.8292,678.5325 Q449.8292,680.6262 450.5167,681.7044 Q451.2042,682.7669 452.548,682.7669 Q453.173,682.7669 453.7667,682.5012 Q454.3605,682.22 454.9855,681.6419 L454.9855,684.3606 Z " fill="#000000"/><text fill="#000000" font-family="sans-serif" font-size="14" lengthAdjust="spacing" textLength="42.9297" x="472.5167" y="683.5667">Group</text><line style="stroke:#181818;stroke-width:0.5;" x1="382.88" x2="572.5831" y1="694.72" y2="694.72"/><ellipse cx="392.88" cy="708.3684" fill="#FFFFFF" fill-opacity="0.00000" rx="3" ry="3" style="stroke:#038048;stroke-width:1;"/><text fill="#000000" font-family="sans-serif" font-size="14" lengthAdjust="spacing" textLength="57.6475" x="401.88" y="711.7151">gain: int</text><ellipse cx="392.88" cy="724.6653" fill="#FFFFFF" fill-opacity="0.00000" rx="3" ry="3" style="stroke:#038048;stroke-width:1;"/><text fill="#000000" font-family="sans-serif" font-size="14" lengthAdjust="spacing" textLength="162.1553" x="401.88" y="728.012">graduation_mode: bool</text><ellipse cx="392.88" cy="740.9622" fill="#FFFFFF" fill-opacity="0.00000" rx="3" ry="3" style="stroke:#038048;stroke-width:1;"/><text fill="#000000" font-family="sans-serif" font-size="14" lengthAdjust="spacing" textLength="100.6934" x="401.88" y="744.3089">ramp_up: bool</text><ellipse cx="392.88" cy="757.2591" fill="#FFFFFF" fill-opacity="0.00000" rx="3" ry="3" style="stroke:#038048;stroke-width:1;"/><text fill="#000000" font-family="sans-serif" font-size="14" lengthAdjust="spacing" textLength="120.709" x="401.88" y="760.6057">ramp_down: bool</text><ellipse cx="392.88" cy="773.5559" fill="#FFFFFF" fill-opacity="0.00000" rx="3" ry="3" style="stroke:#038048;stroke-width:1;"/><text fill="#000000" font-family="sans-serif" font-size="14" lengthAdjust="spacing" textLength="99.7158" x="401.88" y="776.9026">ramp_rate: int</text><ellipse cx="392.88" cy="789.8528" fill="#FFFFFF" fill-opacity="0.00000" rx="3" ry="3" style="stroke:#038048;stroke-width:1;"/><text fill="#000000" font-family="sans-serif" font-size="14" lengthAdjust="spacing" textLength="102.2314" x="401.88" y="793.1995">cycle_time: int</text><ellipse cx="392.88" cy="806.1497" fill="#FFFFFF" fill-opacity="0.00000" rx="3" ry="3" style="stroke:#038048;stroke-width:1;"/><text fill="#000000" font-family="sans-serif" font-size="14" lengthAdjust="spacing" textLength="135.9736" x="401.88" y="809.4964">factor_per_step: int</text><ellipse cx="392.88" cy="822.4466" fill="#FFFFFF" fill-opacity="0.00000" rx="3" ry="3" style="stroke:#038048;stroke-width:1;"/><text fill="#000000" font-family="sans-serif" font-size="14" lengthAdjust="spacing" textLength="93.7275" x="401.88" y="825.7932">hold_on: bool</text><ellipse cx="392.88" cy="838.7434" fill="#FFFFFF" fill-opacity="0.00000" rx="3" ry="3" style="stroke:#038048;stroke-width:1;"/><text fill="#000000" font-family="sans-serif" font-size="14" lengthAdjust="spacing" textLength="120.7021" x="401.88" y="842.0901">hold_on_time: int</text><ellipse cx="392.88" cy="855.0403" fill="#FFFFFF" fill-opacity="0.00000" rx="3" ry="3" style="stroke:#038048;stroke-width:1;"/><text fill="#000000" font-family="sans-serif" font-size="14" lengthAdjust="spacing" textLength="94.7119" x="401.88" y="858.387">hold_off: bool</text><ellipse cx="392.88" cy="871.3372" fill="#FFFFFF" fill-opacity="0.00000" rx="3" ry="3" style="stroke:#038048;stroke-width:1;"/><text fill="#000000" font-family="sans-serif" font-size="14" lengthAdjust="spacing" textLength="121.6865" x="401.88" y="874.6839">hold_off_time: int</text><line style="stroke:#181818;stroke-width:0.5;" x1="382.88" x2="572.5831" y1="881.9856" y2="881.9856"/><ellipse cx="392.88" cy="895.6341" fill="#84BE84" rx="3" ry="3" style="stroke:#038048;stroke-width:1;"/><text fill="#000000" font-family="sans-serif" font-size="14" lengthAdjust="spacing" textLength="165.7031" x="401.88" y="898.9807">graduation_start(): void</text><ellipse cx="392.88" cy="911.9309" fill="#84BE84" rx="3" ry="3" style="stroke:#038048;stroke-width:1;"/><text fill="#000000" font-family="sans-serif" font-size="14" lengthAdjust="spacing" textLength="163.3311" x="401.88" y="915.2776">graduation_stop(): void</text></g><g id="elem_GMN13"><path d="M198.66,772.52 L198.66,812.7856 A0,0 0 0 0 198.66,812.7856 L346.7845,812.7856 A0,0 0 0 0 346.7845,812.7856 L346.7845,796.65 L381.62,792.65 L346.7845,788.65 L346.7845,782.52 L336.7845,772.52 L198.66,772.52 A0,0 0 0 0 198.66,772.52 " fill="#FEFFDD" style="stroke:#181818;stroke-width:0.5;"/><path d="M336.7845,772.52 L336.7845,782.52 L346.7845,782.52 L336.7845,772.52 " fill="#FEFFDD" style="stroke:#181818;stroke-width:0.5;"/><text fill="#000000" font-family="sans-serif" font-size="13" lengthAdjust="spacing" textLength="127.1245" x="204.66" y="789.5869">Complex automatic</text><text fill="#000000" font-family="sans-serif" font-size="13" lengthAdjust="spacing" textLength="88.9624" x="204.66" y="804.7197">group actions</text></g><!--class SubAddress--><g id="elem_SubAddress"><rect codeLine="84" fill="#F1F1F1" height="72.5938" id="SubAddress" rx="2.5" ry="2.5" style="stroke:#181818;stroke-width:0.5;" width="114.9541" x="704.25" y="756.35"/><ellipse cx="719.25" cy="772.35" fill="#ADD1B2" rx="11" ry="11" style="stroke:#181818;stroke-width:1;"/><path d="M722.2188,777.9906 Q721.6406,778.2875 721,778.4281 Q720.3594,778.5844 719.6563,778.5844 Q717.1563,778.5844 715.8281,776.9437 Q714.5156,775.2875 714.5156,772.1625 Q714.5156,769.0375 715.8281,767.3812 Q717.1563,765.725 719.6563,765.725 Q720.3594,765.725 721,765.8812 Q721.6563,766.0375 722.2188,766.3344 L722.2188,769.0531 Q721.5938,768.475 721,768.2094 Q720.4063,767.9281 719.7813,767.9281 Q718.4375,767.9281 717.75,769.0062 Q717.0625,770.0687 717.0625,772.1625 Q717.0625,774.2562 717.75,775.3344 Q718.4375,776.3969 719.7813,776.3969 Q720.4063,776.3969 721,776.1312 Q721.5938,775.85 722.2188,775.2719 L722.2188,777.9906 Z " fill="#000000"/><text fill="#000000" font-family="sans-serif" font-size="14" lengthAdjust="spacing" textLength="82.9541" x="733.25" y="777.1967">SubAddress</text><line style="stroke:#181818;stroke-width:0.5;" x1="705.25" x2="818.2041" y1="788.35" y2="788.35"/><ellipse cx="715.25" cy="801.9984" fill="#FFFFFF" fill-opacity="0.00000" rx="3" ry="3" style="stroke:#038048;stroke-width:1;"/><text fill="#000000" font-family="sans-serif" font-size="14" lengthAdjust="spacing" textLength="82.7285" x="724.25" y="805.3451">address: int</text><ellipse cx="715.25" cy="818.2953" fill="#FFFFFF" fill-opacity="0.00000" rx="3" ry="3" style="stroke:#038048;stroke-width:1;"/><text fill="#000000" font-family="sans-serif" font-size="14" lengthAdjust="spacing" textLength="86.5293" x="724.25" y="821.642">enable: bool</text></g><g id="elem_GMN17"><path d="M853.86,772.52 L853.86,788.65 L819.51,792.65 L853.86,796.65 L853.86,812.7856 A0,0 0 0 0 853.86,812.7856 L1011.5885,812.7856 A0,0 0 0 0 1011.5885,812.7856 L1011.5885,782.52 L1001.5885,772.52 L853.86,772.52 A0,0 0 0 0 853.86,772.52 " fill="#FEFFDD" style="stroke:#181818;stroke-width:0.5;"/><path d="M1001.5885,772.52 L1001.5885,782.52 L1011.5885,782.52 L1001.5885,772.52 " fill="#FEFFDD" style="stroke:#181818;stroke-width:0.5;"/><text fill="#000000" font-family="sans-serif" font-size="13" lengthAdjust="spacing" textLength="130.6157" x="859.86" y="789.5869">Support for multiple</text><text fill="#000000" font-family="sans-serif" font-size="13" lengthAdjust="spacing" textLength="136.7285" x="859.86" y="804.7197">devices on same bus</text></g><!--class ErrorCodes--><g id="elem_ErrorCodes"><rect codeLine="90" fill="#F1F1F1" height="88.8906" id="ErrorCodes" rx="2.5" ry="2.5" style="stroke:#181818;stroke-width:0.5;" width="225.8213" x="198.82" y="1188.51"/><ellipse cx="268.5739" cy="1204.51" fill="#EB937F" rx="11" ry="11" style="stroke:#181818;stroke-width:1;"/><path d="M272.6833,1210.51 L264.9645,1210.51 L264.9645,1198.1194 L272.6833,1198.1194 L272.6833,1200.2756 L267.4177,1200.2756 L267.4177,1202.9475 L272.1833,1202.9475 L272.1833,1205.1038 L267.4177,1205.1038 L267.4177,1208.3538 L272.6833,1208.3538 L272.6833,1210.51 Z " fill="#000000"/><text fill="#000000" font-family="sans-serif" font-size="14" lengthAdjust="spacing" textLength="77.8135" x="289.0739" y="1209.3567">ErrorCodes</text><line style="stroke:#181818;stroke-width:0.5;" x1="199.82" x2="423.6413" y1="1220.51" y2="1220.51"/><text fill="#000000" font-family="sans-serif" font-size="14" lengthAdjust="spacing" textLength="123.7578" x="204.82" y="1237.5051">E_NONE: No error</text><text fill="#000000" font-family="sans-serif" font-size="14" lengthAdjust="spacing" textLength="213.8213" x="204.82" y="1253.802">E_SHORT_CIRCUI: Short circuit</text><text fill="#000000" font-family="sans-serif" font-size="14" lengthAdjust="spacing" textLength="212.2627" x="204.82" y="1270.0989">E_OPEN_CIRCUIT: Open circuit</text></g><!--class OutputState--><g id="elem_OutputState"><rect codeLine="96" fill="#F1F1F1" height="105.1875" id="OutputState" rx="2.5" ry="2.5" style="stroke:#181818;stroke-width:0.5;" width="233.2588" x="460.1" y="1180.36"/><ellipse cx="529.6352" cy="1196.36" fill="#EB937F" rx="11" ry="11" style="stroke:#181818;stroke-width:1;"/><path d="M533.7445,1202.36 L526.0258,1202.36 L526.0258,1189.9694 L533.7445,1189.9694 L533.7445,1192.1256 L528.4789,1192.1256 L528.4789,1194.7975 L533.2445,1194.7975 L533.2445,1196.9538 L528.4789,1196.9538 L528.4789,1200.2038 L533.7445,1200.2038 L533.7445,1202.36 Z " fill="#000000"/><text fill="#000000" font-family="sans-serif" font-size="14" lengthAdjust="spacing" textLength="85.6885" x="550.1352" y="1201.2067">OutputState</text><line style="stroke:#181818;stroke-width:0.5;" x1="461.1" x2="692.3588" y1="1212.36" y2="1212.36"/><text fill="#000000" font-family="sans-serif" font-size="14" lengthAdjust="spacing" textLength="116.6416" x="466.1" y="1229.3551">OFF: Channel off</text><text fill="#000000" font-family="sans-serif" font-size="14" lengthAdjust="spacing" textLength="136.0557" x="466.1" y="1245.652">ON: Channel full on</text><text fill="#000000" font-family="sans-serif" font-size="14" lengthAdjust="spacing" textLength="139.8223" x="466.1" y="1261.9489">PWM: Channel PWM</text><text fill="#000000" font-family="sans-serif" font-size="14" lengthAdjust="spacing" textLength="221.2588" x="466.1" y="1278.2457">PWM_GRP: Channel PWM group</text></g><!--class SubAddressType--><g id="elem_SubAddressType"><rect codeLine="103" fill="#F1F1F1" height="105.1875" id="SubAddressType" rx="2.5" ry="2.5" style="stroke:#181818;stroke-width:0.5;" width="149.291" x="687.08" y="998.88"/><ellipse cx="702.08" cy="1014.88" fill="#EB937F" rx="11" ry="11" style="stroke:#181818;stroke-width:1;"/><path d="M706.1894,1020.88 L698.4706,1020.88 L698.4706,1008.4894 L706.1894,1008.4894 L706.1894,1010.6456 L700.9238,1010.6456 L700.9238,1013.3175 L705.6894,1013.3175 L705.6894,1015.4737 L700.9238,1015.4737 L700.9238,1018.7237 L706.1894,1018.7237 L706.1894,1020.88 Z " fill="#000000"/><text fill="#000000" font-family="sans-serif" font-size="14" lengthAdjust="spacing" textLength="117.291" x="716.08" y="1019.7267">SubAddressType</text><line style="stroke:#181818;stroke-width:0.5;" x1="688.08" x2="835.371" y1="1030.88" y2="1030.88"/><text fill="#000000" font-family="sans-serif" font-size="14" lengthAdjust="spacing" textLength="67.7305" x="693.08" y="1047.8751">SUBADR1</text><text fill="#000000" font-family="sans-serif" font-size="14" lengthAdjust="spacing" textLength="67.7305" x="693.08" y="1064.172">SUBADR2</text><text fill="#000000" font-family="sans-serif" font-size="14" lengthAdjust="spacing" textLength="67.7305" x="693.08" y="1080.4689">SUBADR3</text><text fill="#000000" font-family="sans-serif" font-size="14" lengthAdjust="spacing" textLength="90.2139" x="693.08" y="1096.7657">ALLCALLADR</text></g><!--link LedChannels to dummy--><!--link PCA9955 to LedChannels--><g id="link_PCA9955_LedChannels"><path codeLine="111" d="M228.5113,478.9678 C206.7013,501.7478 199.3992,509.366 183.9092,525.546 " fill="#FFFFFF" fill-opacity="0.00000" id="PCA9955-LedChannels" style="stroke:#181818;stroke-width:1;"/><polygon fill="#FFFFFF" fill-opacity="0.00000" points="236.81,470.3,229.7714,471.8677,228.5113,478.9678,235.5499,477.4002,236.81,470.3" style="stroke:#181818;stroke-width:1;"/><polygon fill="#181818" points="179.76,529.88,188.8732,526.1451,183.2177,526.2683,183.0945,520.6128,179.76,529.88" style="stroke:#181818;stroke-width:1;"/><text fill="#000000" font-family="sans-serif" font-size="13" lengthAdjust="spacing" textLength="8.271" x="221.4344" y="490.2191">1</text><text fill="#000000" font-family="sans-serif" font-size="13" lengthAdjust="spacing" textLength="8.271" x="172.7894" y="519.1129">1</text></g><!--link LedChannels to LedChannel--><g id="link_LedChannels_LedChannel"><path codeLine="112" d="M135.9559,615.0269 C123.3659,684.3569 108.41,826.77 180.73,922.58 C224.48,980.55 267.66,950.31 332.73,982.58 C338.53,985.46 339.1538,985.6832 345.0638,988.8832 " fill="#FFFFFF" fill-opacity="0.00000" id="LedChannels-LedChannel" style="stroke:#181818;stroke-width:1;"/><polygon fill="#181818" points="138.1,603.22,133.0923,608.4088,135.9559,615.0269,140.9636,609.8381,138.1,603.22" style="stroke:#181818;stroke-width:1;"/><polygon fill="#181818" points="350.34,991.74,344.3302,983.9373,345.9432,989.3593,340.5211,990.9722,350.34,991.74" style="stroke:#181818;stroke-width:1;"/><text fill="#000000" font-family="sans-serif" font-size="13" lengthAdjust="spacing" textLength="8.271" x="128.125" y="622.9112">1</text><text fill="#000000" font-family="sans-serif" font-size="13" lengthAdjust="spacing" textLength="16.542" x="322.0485" y="983.4547">16</text></g><!--link PCA9955 to Groups--><g id="link_PCA9955_Groups"><path codeLine="113" d="M457.73,482.3 C457.73,505.08 457.73,507.7 457.73,523.88 " fill="#FFFFFF" fill-opacity="0.00000" id="PCA9955-Groups" style="stroke:#181818;stroke-width:1;"/><polygon fill="#FFFFFF" fill-opacity="0.00000" points="457.73,470.3,453.73,476.3,457.73,482.3,461.73,476.3,457.73,470.3" style="stroke:#181818;stroke-width:1;"/><polygon fill="#181818" points="457.73,529.88,461.73,520.88,457.73,524.88,453.73,520.88,457.73,529.88" style="stroke:#181818;stroke-width:1;"/><text fill="#000000" font-family="sans-serif" font-size="13" lengthAdjust="spacing" textLength="8.271" x="449.6033" y="490.2191">1</text><text fill="#000000" font-family="sans-serif" font-size="13" lengthAdjust="spacing" textLength="8.271" x="444.6984" y="519.1129">1</text></g><!--link Groups to Group--><g id="link_Groups_Group"><path codeLine="114" d="M461.9606,614.903 C463.4406,631.583 463.7276,634.6437 465.6776,656.5337 " fill="#FFFFFF" fill-opacity="0.00000" id="Groups-Group" style="stroke:#181818;stroke-width:1;"/><polygon fill="#181818" points="460.9,602.95,457.4459,609.28,461.9606,614.903,465.4146,608.573,460.9,602.95" style="stroke:#181818;stroke-width:1;"/><polygon fill="#181818" points="466.21,662.51,469.3956,653.1906,465.7663,657.5297,461.4272,653.9004,466.21,662.51" style="stroke:#181818;stroke-width:1;"/><text fill="#000000" font-family="sans-serif" font-size="13" lengthAdjust="spacing" textLength="8.271" x="452.7775" y="622.8703">1</text><text fill="#000000" font-family="sans-serif" font-size="13" lengthAdjust="spacing" textLength="8.271" x="453.2087" y="651.6234">4</text></g><!--link PCA9955 to SubAddresses--><g id="link_PCA9955_SubAddresses"><path codeLine="115" d="M681.1655,479.0748 C702.4155,501.8548 709.3763,509.3135 724.4763,525.4935 " fill="#FFFFFF" fill-opacity="0.00000" id="PCA9955-SubAddresses" style="stroke:#181818;stroke-width:1;"/><polygon fill="#FFFFFF" fill-opacity="0.00000" points="672.98,470.3,674.1478,477.4159,681.1655,479.0748,679.9977,471.9589,672.98,470.3" style="stroke:#181818;stroke-width:1;"/><polygon fill="#181818" points="728.57,529.88,725.3538,520.5711,725.1586,526.2246,719.5051,526.0294,728.57,529.88" style="stroke:#181818;stroke-width:1;"/><text fill="#000000" font-family="sans-serif" font-size="13" lengthAdjust="spacing" textLength="8.271" x="671.9162" y="490.2191">1</text><text fill="#000000" font-family="sans-serif" font-size="13" lengthAdjust="spacing" textLength="8.271" x="709.6303" y="519.1129">1</text></g><!--link SubAddresses to SubAddress--><g id="link_SubAddresses_SubAddress"><path codeLine="116" d="M761.73,614.95 C761.73,656.82 761.73,707.97 761.73,749.92 " fill="#FFFFFF" fill-opacity="0.00000" id="SubAddresses-SubAddress" style="stroke:#181818;stroke-width:1;"/><polygon fill="#181818" points="761.73,602.95,757.73,608.95,761.73,614.95,765.73,608.95,761.73,602.95" style="stroke:#181818;stroke-width:1;"/><polygon fill="#181818" points="761.73,755.92,765.73,746.92,761.73,750.92,757.73,746.92,761.73,755.92" style="stroke:#181818;stroke-width:1;"/><text fill="#000000" font-family="sans-serif" font-size="13" lengthAdjust="spacing" textLength="8.271" x="753.0414" y="622.8703">1</text><text fill="#000000" font-family="sans-serif" font-size="13" lengthAdjust="spacing" textLength="8.271" x="748.7339" y="745.3968">4</text></g><!--link Group to LedChannel--><g id="link_Group_LedChannel"><path codeLine="117" d="M461.13,922.81 C458.5,943.3 456.6354,957.809 454.2754,976.159 " fill="#FFFFFF" fill-opacity="0.00000" id="Group-to-LedChannel" style="stroke:#008000;stroke-width:1;stroke-dasharray:7.0,7.0;"/><polygon fill="#008000" points="453.51,982.11,458.6254,973.6938,454.1478,977.1508,450.6907,972.6733,453.51,982.11" style="stroke:#008000;stroke-width:1;"/><text fill="#000000" font-family="sans-serif" font-size="13" lengthAdjust="spacing" textLength="8.271" x="451.9468" y="942.8392">1</text><text fill="#000000" font-family="sans-serif" font-size="13" lengthAdjust="spacing" textLength="8.271" x="445.9941" y="971.6175">4</text></g><!--link LedChannel to ErrorCodes--><g id="link_LedChannel_ErrorCodes"><path codeLine="119" d="M394.07,1120.84 C377.33,1143.43 359.17,1167.93 344.17,1188.17 " fill="#FFFFFF" fill-opacity="0.00000" id="LedChannel-ErrorCodes" style="stroke:#181818;stroke-width:1;"/></g><!--link LedChannel to OutputState--><g id="link_LedChannel_OutputState"><path codeLine="120" d="M495.01,1120.84 C509.43,1140.45 524.92,1161.52 538.5,1179.97 " fill="#FFFFFF" fill-opacity="0.00000" id="LedChannel-OutputState" style="stroke:#181818;stroke-width:1;"/></g><!--link SubAddress to SubAddressType--><g id="link_SubAddress_SubAddressType"><path codeLine="121" d="M761.73,829.36 C761.73,873.33 761.73,948.34 761.73,998.65 " fill="#FFFFFF" fill-opacity="0.00000" id="SubAddress-SubAddressType" style="stroke:#181818;stroke-width:1;"/></g><!--SRC=[hLPRRzis57xthpZ87X9lSR2uxO1wm01NJJe3gMt4BZQWBGXQFBA9KQH6KOcD8lzzHpUBiYMW0seWYCZlEnUU6ta9g-NxlqVtKc5WaeELsvrRuzvDuBY4gt08ur_7hs5kKC5K2xIfqOFBKlH1XgXJ7Cq4QYSZYNO27sVh0Vr2nTCKbi7qxTitR-3R0EZtIxMyakDm0hDnS0rS28jfEW6ftJKOP8dK4rWaJXhDrUTOXjQ4HZjhb49xivJwwpMG1BhlO0uBgpStfV5lv9yIBn3kkDQeoEO3Yg1Qj2bRQxA421-A_sqipJQLqqYCLRQPrglA6eJ68YJM96YTnFJKlibSaZc6ccyKJc1ZZ6eJDaNeTHsM4zTuVknwcwnjbTbm1TNHpwpXFZ4wpmvNR6kvo7WUi4wpIkf_fDvsOSbptE5BPF7V37LuwC2gKmfK_D3oLvbdKFY4HvVF4aGCbfXdj2mseZD2F7E6IHrQZEbeB59y-nsqKfld2bfhBCHSyst1EFF4F94J3kEar0vN5ha0ezLXU1BbN5FAS2zJryCzwexHxKnUXmgvPQNarN02JqQA4uf0gQNh0OikE68lTSjvHLsttL64COMQiLoeILW3Rj59EYqH93NwlY0D_JPfh9ITyOCC5CfotPLolwb-a0aQDetMmjHbP6o8GEL9fJhmeZRwl9E21jhNqUWF45aS7mQqWTNdMPIF3lx_xcrcYkCEE_QBukXIamTi9ZgHkiNzvdaPQEFeh1XHTRxZgGpfMzGDsChfwN5wFEwsqw9O7YSiIteXOPvrBsYx0n8Ug6kOat4N6F7G6SjexBBKOTB1s1abMFVqgw0-tIKSHVsYKNGcMrUb5opAjErhw1RD95vhUzaBJ9met1UpBIPo-4KNrG1qU99CEvheDAN-dNjIR_wTL9ajoZc_w9B4M0THFZ4pvIHvyOKwx8cU02cDEKXvZB39o05IayLmbzTkGBLHsuSxDb_CxoRqb2WBkzvT_RbuNBDWzXXycf6XNMucb3RCfAifY-NTl6AiyqiVzP7nKXjS53VEAc-bok3Y_fu2LhKf9QZQdJURKQO8qIMm_EjZWz3YkCi-F2vRIDc0ZUacrkj3KbbVVNetVVzuwtsFlUzNnVVquI6WFreN8wb-BLtSNe39fy_5BLoqNYd-SCzPFvUitrgq7ZtrQwOQtOtuQmBB4TmZs7haj8PpMuatOSjPaiCvIh3l8C1FMukeVwSN1zu8dkvG3BopaOnNFYU0bsRFbnnfPs5GJcswlDq1Oemtz7Bz3m00]--></g></svg>
